<?xml version="1.0" standalone="no"?>
<!DOCTYPE svg PUBLIC "-//W3C//DTD SVG 20010904//EN"
 "http://www.w3.org/TR/2001/REC-SVG-20010904/DTD/svg10.dtd">
<svg version="1.0" xmlns="http://www.w3.org/2000/svg"
 width="512.000000pt" height="512.000000pt" viewBox="0 0 512.000000 512.000000"
 preserveAspectRatio="xMidYMid meet">

<g transform="translate(0.000000,512.000000) scale(0.100000,-0.100000)"
fill="#000000" stroke="none">
<path d="M1800 4806 c-143 -31 -264 -134 -315 -268 l-17 -47 -467 -3 -466 -4
-60 -24 c-82 -33 -164 -115 -193 -193 l-22 -58 0 -1649 c0 -1514 1 -1653 17
-1692 38 -98 121 -178 218 -209 29 -9 168 -14 508 -16 441 -4 467 -5 467 -22
0 -10 16 -50 35 -88 43 -87 112 -153 203 -196 l67 -32 1174 -3 c1282 -3 1237
-4 1338 55 68 40 139 116 169 182 25 55 30 59 67 64 63 9 167 66 221 121 27
28 63 80 80 116 l31 65 3 1610 c2 1447 1 1615 -14 1665 -40 139 -161 254 -307
291 -41 10 -47 15 -62 57 -38 101 -97 174 -186 227 -108 66 -72 65 -1314 64
-829 -1 -1134 -4 -1175 -13z m2363 -150 c63 -23 117 -67 148 -121 32 -56 35
-65 17 -65 -25 0 -123 -51 -164 -85 -54 -44 -107 -125 -130 -197 l-18 -58
-1096 0 -1097 0 -61 31 c-40 20 -72 44 -92 72 -85 116 -76 252 24 352 90 90
-11 83 1286 84 939 0 1152 -2 1183 -13z m393 -345 c53 -24 110 -82 137 -140
l22 -46 0 -1585 0 -1585 -24 -49 c-71 -144 -233 -201 -374 -133 -60 30 -95 65
-130 131 l-22 41 0 1595 0 1595 27 51 c70 132 226 186 364 125z m-3086 -4 c0
-12 15 -54 34 -92 59 -124 172 -208 311 -234 40 -7 404 -11 1122 -11 l1063 0
0 -1420 0 -1420 -1093 0 c-1188 0 -1137 2 -1240 -55 -84 -48 -172 -163 -192
-253 l-7 -33 -461 3 c-506 3 -490 1 -548 65 -58 62 -54 -53 -57 1673 -2 1122
1 1611 9 1648 13 62 48 108 104 133 37 17 75 19 498 19 l457 0 0 -23z m2555
-3387 c15 -75 58 -151 120 -209 51 -48 140 -101 170 -101 27 0 16 -21 -42 -79
-99 -99 -7 -92 -1323 -89 l-1135 3 -45 24 c-87 45 -141 119 -155 213 -16 105
54 225 160 274 l50 24 1094 -3 1094 -2 12 -55z"/>
</g>
</svg>
